<?xml version="1.0" encoding="UTF-8" standalone="no"?>
<!-- Created with Inkscape (http://www.inkscape.org/) -->

<svg
   version="1.1"
   id="svg1"
   width="1122.5601"
   height="793.59998"
   viewBox="0 0 1122.5601 793.59998"
   sodipodi:docname="ma.png"
   xmlns:inkscape="http://www.inkscape.org/namespaces/inkscape"
   xmlns:sodipodi="http://sodipodi.sourceforge.net/DTD/sodipodi-0.dtd"
   xmlns="http://www.w3.org/2000/svg"
   xmlns:svg="http://www.w3.org/2000/svg">
  <defs
     id="defs1" />
  <sodipodi:namedview
     id="namedview1"
     pagecolor="#ffffff"
     bordercolor="#000000"
     borderopacity="0.25"
     inkscape:showpageshadow="2"
     inkscape:pageopacity="0.0"
     inkscape:pagecheckerboard="0"
     inkscape:deskcolor="#d1d1d1" />
  <g
     inkscape:groupmode="layer"
     inkscape:label="Image"
     id="g1">
    <path
       style="fill:#000000"
       d="m 813.91252,395.49558 c 0.16768,-0.43697 0.0557,-0.49104 -0.65004,-0.31391 -0.64322,0.16144 -0.85262,0.0946 -0.85262,-0.2721 0,-0.26736 -0.15031,-0.4861 -0.33403,-0.4861 -0.18371,0 -0.31065,-0.18 -0.28208,-0.4 0.14874,-1.14546 -0.0961,-1.77019 -0.82389,-2.10177 -0.44,-0.20048 -0.8,-0.52681 -0.8,-0.72517 0,-0.19837 -0.36096,-0.78965 -0.80214,-1.31396 -0.83778,-0.99565 -0.81565,-1.64863 0.0447,-1.31849 0.61208,0.23488 1.05488,-0.39779 0.84368,-1.20543 -0.19592,-0.74922 -1.35503,-1.15107 -1.70179,-0.59 -0.42274,0.68402 -1.2652,-0.26868 -1.25954,-1.42436 0.003,-0.69473 0.0903,-0.86594 0.28422,-0.55982 0.33497,0.52884 0.99088,0.20176 0.99088,-0.49412 0,-0.30111 0.18184,-0.42557 0.4637,-0.31741 0.31581,0.12119 0.4047,0.0242 0.27871,-0.30416 -0.11715,-0.3053 -0.37521,-0.39875 -0.7037,-0.25484 -0.28529,0.12499 -0.87475,0.24127 -1.30992,0.25839 -1.03918,0.0409 -1.32615,-1.05532 -0.34353,-1.31228 0.92129,-0.24093 0.63214,-0.92359 -0.335,-0.79089 -0.75487,0.10357 -0.75747,0.0958 -0.13026,-0.38983 0.352,-0.27253 0.50448,-0.50008 0.33884,-0.50568 -0.16564,-0.006 -0.0216,-0.21589 0.32,-0.46732 0.58522,-0.4307 0.58819,-0.46993 0.0513,-0.67803 -0.31343,-0.12148 -0.99185,-0.13648 -1.50759,-0.0333 -1.19426,0.23885 -1.43679,-0.16499 -0.81788,-1.36183 0.574,-1.11 0.35914,-1.94967 -0.4989,-1.94967 -0.4289,0 -0.60576,-0.22805 -0.60576,-0.78111 0,-0.42962 0.144,-0.87011 0.32,-0.97889 0.45305,-0.28 0.39667,-1.21907 -0.13468,-2.24323 -0.25007,-0.48202 -0.37866,-1.07448 -0.28576,-1.31658 0.0929,-0.2421 0.0275,-0.44019 -0.14532,-0.44019 -0.17283,0 -0.40595,-0.45855 -0.51804,-1.019 -0.11209,-0.56045 -0.39959,-1.24445 -0.63889,-1.52 -0.23929,-0.27555 -0.68762,-1.293 -0.99627,-2.261 -0.30866,-0.968 -0.83116,-2.05728 -1.16112,-2.42062 -0.32995,-0.36335 -0.59992,-1.02978 -0.59992,-1.48097 0,-0.48479 -0.28181,-1.00746 -0.68894,-1.27778 -0.37892,-0.2516 -0.71418,-0.73716 -0.74503,-1.07904 -0.0308,-0.34187 -0.49693,-1.55759 -1.03573,-2.70159 -0.53881,-1.144 -1.1543,-2.728 -1.36776,-3.52 -0.21347,-0.792 -0.58937,-1.82222 -0.83533,-2.28937 -0.24597,-0.46716 -0.44721,-1.00716 -0.44721,-1.2 0,-0.19285 -0.288,-0.63863 -0.64,-0.99063 -0.352,-0.352 -0.64,-0.86202 -0.64,-1.13338 0,-0.27136 -0.28881,-0.80338 -0.6418,-1.18227 -0.36991,-0.39705 -0.56632,-0.9267 -0.46363,-1.25025 0.10809,-0.34056 -0.11146,-0.84996 -0.5582,-1.29511 -0.90223,-0.89902 -2.17637,-2.74023 -2.17637,-3.14498 0,-0.16366 -0.414,-0.51166 -0.92,-0.77332 -0.66603,-0.34442 -0.92,-0.71243 -0.92,-1.33311 0,-0.47155 -0.234,-0.98832 -0.52,-1.14837 -0.286,-0.16006 -0.52,-0.49985 -0.52,-0.75511 0,-0.25525 -0.1909,-0.4641 -0.42422,-0.4641 -0.46307,0 -1.81578,-1.31115 -1.81578,-1.76 0,-0.15331 -0.27243,-0.57603 -0.60539,-0.93937 -0.33297,-0.36335 -0.99825,-1.42081 -1.4784,-2.34992 -0.48015,-0.92911 -1.14372,-1.83417 -1.4746,-2.01125 -0.33089,-0.17709 -0.60161,-0.54619 -0.60161,-0.82024 0,-0.27405 -0.288,-0.8644 -0.64,-1.3119 -0.352,-0.44749 -0.64,-0.99364 -0.64,-1.21367 0,-0.22002 -0.36,-0.63592 -0.8,-0.92422 -0.44,-0.2883 -0.8,-0.7287 -0.8,-0.97866 0,-0.24996 -0.30716,-0.66962 -0.68257,-0.93256 -0.43454,-0.30437 -0.62448,-0.70019 -0.52273,-1.08932 0.12237,-0.46791 -0.0927,-0.70255 -0.91743,-1.00077 -0.88988,-0.32178 -1.07727,-0.55293 -1.07727,-1.32883 0,-0.60699 -0.16408,-0.93929 -0.46378,-0.93929 -0.60537,0 -2.37997,-1.88418 -2.61144,-2.77271 -0.0993,-0.38099 -0.59993,-0.86646 -1.11262,-1.07882 -0.56783,-0.2352 -0.93216,-0.62418 -0.93216,-0.99521 0,-0.35209 -0.33109,-0.73498 -0.78467,-0.90743 -0.43157,-0.16408 -1.00871,-0.73156 -1.28253,-1.26107 -0.32548,-0.62942 -0.66316,-0.8993 -0.97532,-0.77951 -0.32567,0.12497 -0.47748,-0.0212 -0.47748,-0.45971 0,-0.43083 -0.32621,-0.75665 -0.98886,-0.98765 -0.55975,-0.19513 -0.93047,-0.51991 -0.85429,-0.74844 0.20288,-0.60863 -0.54764,-1.19378 -1.28413,-1.00118 -0.46686,0.12208 -0.71104,-0.0189 -0.8632,-0.49827 -0.1167,-0.36768 -0.56258,-0.75645 -0.99085,-0.86394 -0.48158,-0.12087 -0.77867,-0.42638 -0.77867,-0.80075 0,-0.33292 -0.15941,-0.60531 -0.35424,-0.60531 -0.19483,0 -0.27135,-0.216 -0.17004,-0.48 0.22106,-0.57607 -0.31031,-0.65357 -0.54849,-0.08 -0.22613,0.54453 -1.48723,-0.9101 -1.48723,-1.71545 0,-0.63908 -0.62523,-0.80755 -1.136,-0.30609 -0.30957,0.30392 -1.61375,-0.42854 -1.55305,-0.87223 0.017,-0.12442 -0.23498,-0.18117 -0.56,-0.12611 -0.36523,0.0619 -0.59095,-0.0909 -0.59095,-0.4 0,-0.27506 -0.12721,-0.50012 -0.28268,-0.50012 -0.15547,0 -0.35799,-0.288 -0.45004,-0.64 -0.0982,-0.37545 -0.43649,-0.64 -0.81844,-0.64 -0.35809,0 -0.74243,-0.14781 -0.85409,-0.32848 -0.11166,-0.18067 -0.44415,-0.28867 -0.73888,-0.24 -0.35663,0.0589 -0.50442,-0.0988 -0.44184,-0.47152 0.0716,-0.42654 -0.12782,-0.56 -0.83685,-0.56 -0.51198,0 -1.297,-0.288 -1.7445,-0.64 -0.4475,-0.352 -0.96595,-0.64 -1.15212,-0.64 -0.18617,0 -0.78043,-0.432 -1.32056,-0.96 -0.54014,-0.528 -1.1931,-0.96 -1.45103,-0.96 -0.25794,0 -0.46897,-0.20059 -0.46897,-0.44576 0,-0.43064 -0.75148,-0.93286 -1.46799,-0.98108 -0.45438,-0.0306 -1.23183,-0.82528 -1.49987,-1.53316 -0.13766,-0.36354 -0.55236,-0.56 -1.1821,-0.56 -0.71016,0 -0.9703,-0.15003 -0.97099,-0.56 -7.8e-4,-0.46186 -0.2952,-0.56027 -1.68,-0.56157 -1.24342,-0.001 -1.92929,-0.18911 -2.64355,-0.72436 -0.53047,-0.39752 -1.68247,-0.98625 -2.56,-1.30828 -0.87752,-0.32203 -1.56155,-0.74593 -1.52005,-0.942 0.0415,-0.19607 -0.4625,-0.45287 -1.12,-0.57067 -1.40282,-0.25133 -2.31545,-0.95399 -2.31545,-1.78271 0,-0.44004 -0.23969,-0.59041 -0.94112,-0.59041 -0.51761,0 -1.03373,-0.14985 -1.14693,-0.33301 -0.1132,-0.18316 -0.45534,-0.25382 -0.76031,-0.15703 -0.34008,0.10794 -0.8351,-0.12269 -1.28017,-0.59645 -0.39912,-0.42485 -1.25083,-0.87097 -1.89268,-0.99138 -1.5358,-0.28812 -2.29879,-0.71741 -2.29879,-1.29338 0,-0.25781 -0.144,-0.46875 -0.32,-0.46875 -0.176,0 -0.32,-0.30479 -0.32,-0.67732 0,-0.53127 -0.14541,-0.63929 -0.67435,-0.50097 -1.20012,0.31384 -3.48565,-1.00301 -3.48565,-2.00832 0,-0.46718 -0.55522,-0.417 -0.73713,0.0666 -0.0967,0.25707 -0.50625,0.0215 -1.14616,-0.6592 -0.54764,-0.58256 -1.14961,-0.96408 -1.33771,-0.84783 -0.43654,0.2698 -4.09969,-0.41167 -6.3491,-1.18115 -0.95155,-0.3255 -2.06755,-0.59182 -2.48,-0.59182 -0.51795,0 -0.7499,-0.18424 -0.7499,-0.59563 0,-0.46026 -0.17898,-0.56141 -0.78751,-0.44508 -0.43312,0.0828 -1.54912,-0.0213 -2.48,-0.23131 -3.13186,-0.70659 -3.77249,-0.98283 -3.77249,-1.62668 0,-0.53465 -0.17008,-0.58575 -1.39205,-0.41826 -1.70548,0.23376 -2.7044,-0.24523 -3.14455,-1.50784 -0.34531,-0.99055 -1.03776,-1.24056 -1.32959,-0.48004 -0.27394,0.71387 -1.45395,0.26151 -1.25932,-0.48277 0.12049,-0.46075 -0.008,-0.61239 -0.51717,-0.61239 -0.37253,0 -0.67732,0.144 -0.67732,0.32 0,0.176 -0.38753,0.32 -0.86117,0.32 -0.80857,0 -0.82446,-0.0268 -0.26018,-0.43945 0.57819,-0.42279 0.57322,-0.44827 -0.13105,-0.67179 -0.42215,-0.13399 -0.88095,-0.0834 -1.08382,0.11945 -0.42468,0.42468 -1.71569,0.46558 -1.96496,0.0622 -0.0984,-0.15924 -0.75783,-0.21189 -1.46534,-0.117 -1.15277,0.15462 -1.26597,0.10991 -1.08976,-0.43045 0.15397,-0.47212 0.1261,-0.50356 -0.12839,-0.14482 -0.26852,0.37853 -0.5445,0.39244 -1.58731,0.08 -0.69425,-0.208 -1.66735,-0.37818 -2.16243,-0.37818 -0.90987,0 -2.72058,-0.48364 -3.74125,-0.99929 -0.30562,-0.15439 -1.02957,-0.28071 -1.6088,-0.28071 -0.57923,0 -1.38765,-0.2343 -1.79649,-0.52067 -0.6949,-0.48672 -0.82992,-0.47722 -2.07121,0.14578 -0.73031,0.36655 -1.51392,0.96862 -1.74135,1.33795 -0.28601,0.46445 -0.60667,0.61018 -1.04,0.47265 -0.48409,-0.15364 -0.6265,-0.0485 -0.6265,0.46272 0,0.37887 -0.20804,0.66157 -0.48686,0.66157 -0.26777,0 -0.64766,0.35292 -0.8442,0.78428 -0.20791,0.45632 -0.73424,0.86706 -1.25863,0.98224 -0.49571,0.10887 -0.98953,0.47595 -1.09736,0.81572 -0.14356,0.45228 -0.4903,0.61776 -1.29451,0.61776 -0.76305,0 -1.09844,0.14655 -1.09844,0.48 0,0.49202 -0.29204,0.59041 -1.47812,0.498 -0.45278,-0.0353 -0.73867,0.17869 -0.86032,0.64389 -0.15959,0.61028 -0.32668,0.66961 -1.34682,0.47823 -1.00441,-0.18843 -1.18834,-0.1278 -1.337,0.4407 -0.1312,0.50172 -0.431,0.65918 -1.25506,0.65918 -0.59547,0 -1.08268,0.144 -1.08268,0.32 0,0.176 -0.44548,0.32 -0.98996,0.32 -0.72083,0 -1.03545,0.17398 -1.15732,0.64 -0.11907,0.45533 -0.43648,0.64 -1.10008,0.64 -0.55117,0 -1.01135,0.20489 -1.12493,0.50087 -0.13427,0.3499 -0.52606,0.47212 -1.29974,0.40546 -0.76299,-0.0657 -1.23369,0.0771 -1.51303,0.45912 -0.23708,0.32423 -0.82695,0.55455 -1.42026,0.55455 -0.62182,0 -1.08854,0.19226 -1.20529,0.49651 -0.13873,0.3615 -0.44062,0.44159 -1.11023,0.29452 -0.67376,-0.14799 -0.97139,-0.0673 -1.11305,0.30189 -0.15049,0.39219 -0.47373,0.45905 -1.45822,0.30162 -1.10999,-0.17749 -1.28676,-0.11852 -1.4437,0.4816 -0.1294,0.49484 -0.42863,0.68385 -1.08262,0.68385 -0.49709,0 -0.99279,0.144 -1.10157,0.32 -0.27857,0.45075 -6.05428,0.39984 -7.64287,-0.0674 -0.72442,-0.21305 -1.49255,-0.60905 -1.70695,-0.88 -0.26521,-0.33515 -0.39308,-0.36477 -0.4,-0.0926 -0.0124,0.48641 -1.93018,0.54713 -1.93018,0.0611 0,-0.18639 -0.15269,-0.24452 -0.33931,-0.12918 -0.18663,0.11534 -0.76263,0.0344 -1.28,-0.17994 -0.73283,-0.30354 -0.94069,-0.59319 -0.94069,-1.31082 0,-0.50665 -0.144,-0.92117 -0.32,-0.92117 -0.176,0 -0.32,0.144 -0.32,0.32 0,0.36794 -1.90825,0.42702 -2.42563,0.0751 -0.1901,-0.1293 -0.54823,-0.70079 -0.79585,-1.26996 -0.53811,-1.23694 -1.25852,-1.63101 -1.25852,-0.68843 0,0.38656 -0.16452,0.5991 -0.4,0.51676 -0.22,-0.0769 -0.36449,-0.34728 -0.3211,-0.6008 0.0474,-0.277 -0.33566,-0.58299 -0.96,-0.7668 -0.72845,-0.21447 -1.03662,-0.49711 -1.03128,-0.94586 0.009,-0.77893 -0.57885,-1.44 -1.28109,-1.44 -0.29089,0 -0.72496,-0.4925 -0.98715,-1.12 -0.25738,-0.616 -0.61004,-1.12 -0.78367,-1.12 -0.17364,0 -0.31571,-0.20784 -0.31571,-0.46186 0,-0.25402 -0.28513,-0.66157 -0.63362,-0.90566 -0.72623,-0.50867 -1.71997,-2.66981 -1.43767,-3.12657 0.10398,-0.16825 0.0403,-0.30591 -0.14161,-0.30591 -0.46878,0 -1.3071,-1.73431 -1.3071,-2.70411 0,-0.44874 -0.25688,-1.07277 -0.57084,-1.38674 -0.60629,-0.60629 -1.98782,-3.58181 -1.99113,-4.28848 -10e-4,-0.23137 -0.22231,-0.84321 -0.49161,-1.35963 -0.2693,-0.51643 -0.40754,-1.15292 -0.30719,-1.41442 0.10034,-0.2615 0.008,-0.58313 -0.2047,-0.71472 -0.49799,-0.30778 -0.68063,-1.48092 -0.27006,-1.73467 0.17354,-0.10725 0.31115,-0.36651 0.3058,-0.57612 -0.005,-0.20961 -0.16098,-0.12113 -0.34583,0.19663 -0.63307,1.08823 -1.13507,0.075 -1.0751,-2.16999 0.0355,-1.32789 -0.088,-2.20743 -0.33903,-2.41579 -0.25312,-0.21008 -0.35838,-0.98296 -0.29332,-2.15376 0.064,-1.1521 -0.0369,-1.9116 -0.27335,-2.05776 -0.28475,-0.17598 -0.28616,-0.46654 -0.006,-1.20911 0.26252,-0.69551 0.27473,-1.31871 0.0423,-2.16049 -0.29007,-1.05054 -0.24752,-1.24712 0.37997,-1.75522 0.38865,-0.31471 0.83664,-0.49184 0.99555,-0.39363 0.15891,0.0982 0.38216,-0.0644 0.49611,-0.36132 0.12878,-0.3356 0.007,-0.65202 -0.32226,-0.83619 -0.72422,-0.40529 -0.6659,-1.64179 0.11056,-2.34448 0.352,-0.31856 0.64,-0.84488 0.64,-1.1696 0,-0.32472 0.126,-0.5904 0.28,-0.5904 0.154,0 0.3705,-0.45249 0.48111,-1.00553 0.11061,-0.55305 0.44466,-1.18363 0.74233,-1.40129 0.31463,-0.23006 0.54862,-0.84738 0.55889,-1.47447 0.0161,-0.98498 0.0941,-1.06977 0.89767,-0.97581 0.95498,0.11167 1.09825,-0.24212 0.49149,-1.21369 -0.32652,-0.52285 -0.275,-0.74294 0.32293,-1.3794 0.39129,-0.41651 0.62497,-0.84376 0.51929,-0.94944 -0.28429,-0.28428 0.1752,-1.52037 0.56516,-1.52037 0.18557,0 0.26734,0.35782 0.18281,0.8 -0.10255,0.53645 -0.009,0.8 0.2827,0.8 0.23959,0 0.43562,-0.13948 0.43562,-0.30996 0,-0.17048 0.21783,-0.22637 0.48408,-0.1242 0.68645,0.26342 1.4001,-0.43369 1.20556,-1.17761 -0.0904,-0.34553 -0.43549,-0.62823 -0.76696,-0.62823 -0.73279,0 -0.77215,-0.57564 -0.10453,-1.5288 0.61981,-0.88491 1.42185,-0.92507 1.42185,-0.0712 0,0.68604 0.64513,0.80192 1.76,0.31615 0.6192,-0.26979 0.61617,-0.28599 -0.0931,-0.49826 -1.02376,-0.30638 -0.86312,-2.16605 0.2005,-2.32117 0.42571,-0.0621 0.67314,0.0496 0.62038,0.28 -0.0483,0.2108 0.11229,0.45596 0.35678,0.54479 0.2445,0.0888 0.36941,0.0348 0.27758,-0.12 -0.0918,-0.15483 -0.0445,-0.60551 0.10514,-1.00151 0.32343,-0.85578 1.46995,-0.96679 1.65258,-0.16 0.0794,0.35073 0.29005,0.0398 0.56373,-0.83209 0.41927,-1.33571 0.47988,-1.38513 1.4967,-1.22012 0.89412,0.14509 1.05973,0.0751 1.05973,-0.44791 0,-0.3964 0.21993,-0.61988 0.61004,-0.61988 0.46591,0 0.57288,0.17011 0.45276,0.72 -0.15375,0.70382 -0.14245,0.70202 0.50284,-0.08 0.75003,-0.90895 0.85048,-1.48796 0.29054,-1.67461 -0.24007,-0.08 -0.18015,-0.2061 0.16,-0.33662 0.2991,-0.11478 0.54382,-0.0692 0.54382,0.10127 0,0.17048 0.2592,0.30996 0.576,0.30996 0.3168,0 0.7345,0.15849 0.92821,0.35221 0.25629,0.25628 0.40766,0.17754 0.55577,-0.28912 0.11195,-0.35273 0.70225,-0.87799 1.31179,-1.16723 0.60953,-0.28924 1.10823,-0.66313 1.10823,-0.83088 0,-0.16774 0.36,-0.30498 0.8,-0.30498 0.44,0 0.8,0.14664 0.8,0.32587 0,0.18528 0.69036,0.30145 1.6,0.26925 0.88,-0.0311 1.6,-0.18135 1.6,-0.3338 0,-0.41323 1.5965,-0.94189 2.02686,-0.67116 0.20523,0.12911 0.80514,0.26858 1.33314,0.30993 2.66089,0.2084 3.40909,0.341 3.72894,0.66084 0.19198,0.19198 0.56833,0.26491 0.83633,0.16207 0.268,-0.10285 0.64646,0.0289 0.84101,0.29273 0.50324,0.68251 1.79372,1.33526 1.79372,0.90731 0,-0.21037 0.33844,-0.16446 0.88989,0.1207 0.58744,0.30378 1.0675,0.36078 1.4125,0.16771 0.79343,-0.44403 1.50456,-0.0152 1.82844,1.10266 0.22206,0.76641 0.29832,0.83897 0.32031,0.30477 0.0425,-1.03325 0.56701,-1.18545 1.51511,-0.43968 0.46203,0.36344 1.074,0.6608 1.35993,0.6608 0.28593,0 0.69973,0.288 0.91956,0.64 0.22595,0.3618 0.74625,0.64 1.19697,0.64 0.46816,0 0.79729,0.18402 0.79729,0.44576 0,0.61988 0.75757,0.84696 1.82167,0.54603 0.68171,-0.19279 1.04688,-0.1115 1.51432,0.33708 0.90336,0.8669 1.46401,0.73993 1.46401,-0.33155 0,-0.65426 0.18661,-0.97148 0.64147,-1.09043 0.44044,-0.11517 0.61594,-0.39544 0.56,-0.89432 -0.058,-0.51766 0.12097,-0.77919 0.62261,-0.90957 0.38724,-0.10065 1.67337,-1.047 2.85806,-2.103 2.98889,-2.66421 3.31786,-2.99655 3.31786,-3.35179 0,-0.17148 0.44598,-0.5424 0.99106,-0.82427 0.8895,-0.45998 0.97054,-0.62189 0.79082,-1.57989 -0.17403,-0.92763 -0.077,-1.15516 0.74112,-1.7377 0.8874,-0.63189 0.93264,-0.7711 0.78913,-2.42833 -0.13337,-1.54012 -0.0803,-1.75802 0.42782,-1.75802 0.48273,0 0.58005,-0.26845 0.58005,-1.6 0,-0.88 -0.12277,-1.6 -0.27284,-1.6 -0.15006,0 -0.2077,-0.7487 -0.12808,-1.66377 0.0796,-0.91507 0.0306,-2.17014 -0.10903,-2.78905 -0.1583,-0.70187 -0.12546,-1.27991 0.0873,-1.53623 0.24179,-0.29134 0.24074,-0.41095 -0.004,-0.41095 -0.18958,0 -0.44268,-0.54 -0.56245,-1.2 -0.25814,-1.42251 -1.16409,-3.31652 -1.86432,-3.89767 -0.27493,-0.22817 -0.42856,-0.53023 -0.3414,-0.67126 0.0872,-0.14102 -0.34643,-0.56845 -0.96352,-0.94984 -0.6171,-0.38139 -1.122,-0.88012 -1.122,-1.1083 0,-0.22818 -0.28146,-0.61243 -0.62548,-0.8539 -0.34401,-0.24147 -0.66801,-0.65331 -0.72,-0.91519 -0.052,-0.26189 -0.49052,-0.65094 -0.97452,-0.86456 -0.50531,-0.22302 -0.88,-0.64177 -0.88,-0.98349 0,-0.77016 -1.21358,-2.07461 -1.66852,-1.79344 -0.21109,0.13046 -0.259,0.0687 -0.12052,-0.15536 0.32044,-0.51848 -0.61288,-1.36756 -1.2391,-1.12726 -0.28363,0.10884 -0.76233,-0.0185 -1.06378,-0.28307 -0.30144,-0.26453 -0.88522,-0.58387 -1.29729,-0.70965 -0.44017,-0.13435 -0.95902,-0.71094 -1.25785,-1.39785 -0.36564,-0.84048 -0.54394,-1.01173 -0.63425,-0.60916 -0.15394,0.68628 -0.67305,0.73127 -0.92297,0.08 -0.1013,-0.264 -0.42078,-0.48217 -0.70995,-0.48482 -0.82011,-0.008 -3.09161,-0.88807 -3.03484,-1.17647 0.028,-0.14229 -0.68179,-0.29525 -1.57733,-0.33991 -1.14015,-0.0568 -1.80666,-0.27269 -2.22339,-0.72 -0.3932,-0.42204 -1.00798,-0.6388 -1.81182,-0.6388 -0.66917,0 -1.92356,-0.21444 -2.78753,-0.47654 -0.86397,-0.26209 -1.95006,-0.47809 -2.41354,-0.48 -0.5718,-0.002 -0.89647,-0.20918 -1.01004,-0.64346 -0.19449,-0.74376 -0.86728,-0.86788 -0.86728,-0.16 0,0.34319 -0.34963,0.48 -1.22666,0.48 -0.67467,0 -1.33077,0.1041 -1.458,0.23133 -0.40217,0.40217 -2.55781,0.415 -3.53426,0.021 -0.72635,-0.29305 -0.96785,-0.29205 -1.06667,0.004 -0.19173,0.57518 -0.8244,0.46238 -1.44016,-0.25677 -0.30139,-0.352 -0.68833,-0.64 -0.85986,-0.64 -0.17153,0 -0.466,0.288 -0.65439,0.64 -0.2055,0.38398 -0.67002,0.64 -1.16122,0.64 -0.54051,0 -0.87374,0.21047 -0.98068,0.61943 -0.13727,0.52494 -0.39782,0.60312 -1.70796,0.51253 -0.85029,-0.0588 -1.68692,-0.19401 -1.85918,-0.30047 -0.41306,-0.25528 -1.33096,0.10773 -1.33096,0.52638 0,0.18117 -0.37964,-0.0502 -0.84364,-0.51424 -0.464,-0.464 -1.04,-0.84363 -1.28,-0.84363 -0.24,0 -0.43636,-0.144 -0.43636,-0.32 0,-0.176 0.14732,-0.32 0.32738,-0.32 0.18006,0 0.0915,-0.36 -0.19681,-0.8 -0.28829,-0.44 -0.80411,-0.8 -1.14626,-0.8 -0.34214,0 -0.55245,-0.11266 -0.46735,-0.25036 0.0851,-0.1377 -0.33982,-0.58924 -0.94427,-1.00341 -0.86526,-0.59289 -1.02194,-0.8459 -0.73669,-1.18961 0.28827,-0.34734 0.12542,-0.53554 -0.79684,-0.92088 -0.63754,-0.26638 -1.15916,-0.64589 -1.15916,-0.84334 0,-0.19746 -0.324,-0.68283 -0.72,-1.07861 -0.396,-0.39577 -1.224,-1.52836 -1.84,-2.51686 -0.616,-0.9885 -1.372,-1.8789 -1.68,-1.97866 -0.308,-0.0998 -0.56,-0.37563 -0.56,-0.61301 0,-0.23739 -0.432,-0.62284 -0.96,-0.85656 -0.528,-0.23371 -0.96,-0.60578 -0.96,-0.82682 0,-0.22103 -0.15941,-0.40188 -0.35424,-0.40188 -0.19697,0 -0.26475,-0.23319 -0.15267,-0.52526 0.15948,-0.4156 0.11019,-0.44943 -0.2361,-0.16204 -0.34563,0.28685 -0.61634,0.11211 -1.28733,-0.83093 -0.46731,-0.65679 -0.84966,-1.01588 -0.84966,-0.79797 0,0.78239 -1.00005,0.37681 -1.3177,-0.53439 -0.19928,-0.57166 -0.62485,-1.006 -1.10335,-1.1261 -0.50137,-0.12584 -0.77895,-0.42422 -0.77895,-0.83733 0,-0.3975 -0.31817,-0.76279 -0.83583,-0.9596 -0.5888,-0.22387 -0.79058,-0.49082 -0.68273,-0.90325 0.11352,-0.4341 -0.11541,-0.68256 -0.88552,-0.96103 -0.75824,-0.27419 -1.08869,-0.62596 -1.22412,-1.3031 -0.11023,-0.55117 -0.45241,-1.01224 -0.8433,-1.1363 -0.36179,-0.11483 -0.58324,-0.32942 -0.49211,-0.47686 0.33222,-0.53754 -0.24429,-1.28584 -0.99063,-1.28584 -0.54297,0 -0.76576,-0.17955 -0.76576,-0.61714 0,-0.33943 -0.222,-0.83914 -0.49332,-1.11047 -0.27133,-0.27133 -0.64337,-0.92373 -0.82675,-1.44978 -0.18338,-0.52605 -0.59384,-1.03911 -0.91213,-1.14013 -0.31828,-0.10102 -0.66283,-0.43091 -0.76566,-0.73308 -0.10283,-0.30217 -0.69779,-1.1974 -1.32214,-1.9894 -0.62435,-0.792 -1.21402,-1.66701 -1.31039,-1.94448 -0.0964,-0.27746 -0.59695,-0.7536 -1.11241,-1.05809 -0.63468,-0.37491 -0.9372,-0.80925 -0.9372,-1.34557 0,-0.43557 -0.22133,-0.87688 -0.49184,-0.98068 -0.27051,-0.10381 -0.72463,-0.63929 -1.00917,-1.18996 -0.28454,-0.55067 -0.74721,-1.17664 -1.02817,-1.39104 -0.28095,-0.21441 -0.37588,-0.39441 -0.21095,-0.4 0.16493,-0.006 -0.0685,-0.40618 -0.51878,-0.89018 -0.45026,-0.484 -0.90941,-1.26593 -1.02035,-1.73762 -0.11094,-0.4717 -0.38149,-1.05192 -0.60122,-1.28938 -0.21974,-0.23747 -0.82057,-1.26967 -1.33519,-2.29379 -0.51462,-1.02411 -1.12662,-1.9353 -1.36,-2.02485 -0.23338,-0.0896 -0.42433,-0.40339 -0.42433,-0.69739 0,-0.29401 -0.25016,-0.89061 -0.5559,-1.32577 -0.86153,-1.2262 -2.96365,-5.52198 -2.96796,-6.06516 -0.002,-0.26732 -0.36212,-1.11274 -0.8,-1.8787 -0.43788,-0.76597 -0.79934,-1.55797 -0.80326,-1.76 -0.004,-0.20204 -0.28871,-0.72734 -0.63288,-1.16734 -0.34417,-0.44 -0.62897,-1.07666 -0.63289,-1.4148 -0.004,-0.33814 -0.21644,-0.84611 -0.47229,-1.12883 -0.25585,-0.28271 -0.5006,-1.08605 -0.54389,-1.78519 -0.048,-0.77581 -0.29898,-1.43116 -0.64394,-1.6817 -0.43821,-0.31828 -0.52533,-0.69579 -0.38766,-1.68 0.14283,-1.02116 0.0781,-1.26948 -0.33089,-1.26948 -0.27964,0 -0.50933,-0.252 -0.51041,-0.56 -10e-4,-0.308 -0.20626,-0.95159 -0.45595,-1.43021 -0.46173,-0.88508 -0.53984,-3.76977 -0.10208,-3.76978 0.132,-1e-5 0.24,-0.14401 0.24,-0.32001 0,-0.176 -0.19368,-0.32 -0.43041,-0.32 -0.68512,0 -1.48959,-1.09373 -1.48959,-2.0252 0,-0.98458 0.7548,-1.16366 1.24258,-0.2948 0.29807,0.53096 0.32584,0.53024 0.53543,-0.0138 0.27884,-0.7238 0.10775,-0.88849 -1.20177,-1.15682 l -1.05624,-0.21643 1.27428,-0.86648 c 1.20852,-0.82175 1.23119,-0.86647 0.43918,-0.86647 -1.2058,0 -1.60512,-0.68349 -1.69286,-2.89754 -0.071,-1.79203 -0.0143,-1.98153 0.67092,-2.24205 0.91573,-0.34816 0.98405,-0.94041 0.10848,-0.94041 -0.66607,0 -0.92141,-1.06831 -0.34107,-1.42698 0.16441,-0.10161 0.2202,-0.6699 0.12397,-1.26286 -0.1339,-0.82517 -0.0163,-1.23672 0.50107,-1.75414 0.71228,-0.71227 0.94381,-2.71275 0.35603,-3.07602 -0.50797,-0.31394 -0.37759,-0.77663 0.43262,-1.53528 0.47953,-0.449 0.76227,-1.08973 0.7792,-1.76576 0.0382,-1.52448 0.39125,-2.93896 0.7336,-2.93896 0.16202,0 0.29458,-0.20433 0.29458,-0.45407 0,-0.24973 0.21187,-0.86173 0.47083,-1.36 0.95686,-1.84113 2.36739,-5.09225 2.5797,-5.94593 0.12037,-0.484 0.34724,-0.88 0.50416,-0.88 0.15692,0 0.28531,-0.22628 0.28531,-0.50286 0,-0.49357 0.69326,-1.37348 1.18857,-1.50857 0.13829,-0.0377 0.26331,-0.42857 0.27783,-0.86857 0.0462,-1.39989 0.12293,-1.6 0.6136,-1.6 0.264,0 0.48,-0.1525 0.48,-0.33888 0,-0.18639 0.13057,-0.25819 0.29016,-0.15956 0.15958,0.0986 0.2204,-0.0874 0.13515,-0.41341 -0.0852,-0.32601 0.0494,-0.79718 0.2993,-1.04705 0.24987,-0.24987 0.64338,-0.81133 0.87446,-1.2477 0.23108,-0.43637 1.02775,-1.5134 1.77038,-2.3934 0.74263,-0.88 1.4501,-1.92428 1.57216,-2.32063 0.17121,-0.55598 0.38816,-0.67891 0.94949,-0.53803 0.49208,0.12351 1.02879,-0.0658 1.65823,-0.5849 0.51187,-0.42213 1.21463,-0.87177 1.5617,-0.99919 0.47043,-0.17271 0.52623,-0.29645 0.21924,-0.48618 -0.26252,-0.16225 -0.37526,-0.76359 -0.31103,-1.65896 0.0971,-1.35327 0.14482,-1.41157 1.30971,-1.59937 0.66493,-0.10719 1.41202,-0.46891 1.66022,-0.80382 0.44227,-0.59679 0.46111,-0.59617 0.94579,0.0311 0.49057,0.63489 0.49614,0.63425 0.6971,-0.08 0.20506,-0.7288 1.20265,-0.99105 1.56146,-0.41048 0.10521,0.17024 0.60025,0.22773 1.10008,0.12776 0.49983,-0.1 0.99839,-0.0368 1.10791,0.14044 0.10952,0.17721 0.48182,0.24827 0.82734,0.15792 0.34686,-0.0907 0.85857,0.0661 1.14254,0.35004 0.64155,0.64155 0.98759,0.65125 1.22433,0.0343 0.23735,-0.61851 1.29096,-0.61851 1.80428,0 0.56707,0.68328 0.86125,0.59703 1.09141,-0.32 0.24064,-0.95881 1.02463,-1.05467 1.30859,-0.16 0.24449,0.77033 0.5798,0.8109 1.13846,0.13776 0.23242,-0.28005 0.69079,-0.43061 1.03606,-0.34032 0.34057,0.0891 0.88258,-0.003 1.20445,-0.20355 0.46626,-0.29118 0.71413,-0.24883 1.21932,0.20837 0.67774,0.61334 1.85457,0.57147 1.72171,-0.0613 -0.044,-0.20955 0.1445,-0.381 0.41889,-0.381 0.27438,0 0.42,0.12763 0.3236,0.28362 -0.0964,0.15599 0.1325,0.36411 0.50869,0.46249 0.7568,0.1979 2.50869,-0.0717 2.50905,-0.38611 1.2e-4,-0.11 0.37893,-0.22194 0.8418,-0.24875 0.46286,-0.0268 0.96676,-0.24281 1.11977,-0.48 0.23202,-0.35966 0.32594,-0.35713 0.56581,0.0152 0.19835,0.30792 0.60373,0.38326 1.3062,0.24276 0.56022,-0.11204 1.28711,-0.06 1.6153,0.11564 0.43492,0.23276 0.66643,0.20089 0.85381,-0.11756 0.37159,-0.63151 3.05003,-0.85938 3.78494,-0.322 0.83281,0.60897 1.35507,0.54162 1.59214,-0.20532 0.2629,-0.82833 1.31611,-0.82833 1.53272,0 0.092,0.352 0.39685,0.64 0.67732,0.64 0.29663,0 0.50996,-0.26773 0.50996,-0.64 0,-0.96303 1.16262,-0.83123 1.41141,0.16 0.11043,0.44 0.42945,0.8 0.70892,0.8 0.32577,0 0.44037,-0.17662 0.3193,-0.49211 -0.27201,-0.70886 0.65382,-0.95268 1.63432,-0.43041 0.65185,0.34721 0.85971,0.35637 0.96508,0.0425 0.22046,-0.65658 0.93094,-0.45559 1.5092,0.42695 0.49969,0.76262 0.5854,0.78751 1.102,0.32 0.30809,-0.27882 0.91279,-0.50695 1.34377,-0.50695 0.43098,0 1.10982,-0.2285 1.50855,-0.50777 0.57432,-0.40228 0.82182,-0.42738 1.1912,-0.12082 0.34919,0.2898 0.57611,0.29578 0.9038,0.0238 0.3328,-0.2762 0.53368,-0.24728 0.83918,0.12082 0.54569,0.65752 1.0718,0.60801 1.77305,-0.16686 l 0.58896,-0.65079 0.68767,0.86241 c 0.74428,0.93342 1.43359,0.81708 1.43359,-0.24196 0,-0.46763 0.17829,-0.61544 0.65268,-0.54111 0.35897,0.0562 0.66117,0.24625 0.67155,0.42225 0.0341,0.57803 0.61136,1.44 0.96435,1.44 0.19034,0 0.27079,-0.28785 0.17879,-0.63968 -0.22263,-0.85134 0.18334,-1.05107 1.19733,-0.58906 0.63693,0.2902 0.92089,0.29116 1.20798,0.004 0.49842,-0.49842 0.74306,-0.47386 1.35269,0.13576 0.30826,0.30826 0.73005,0.42322 1.06286,0.28967 1.10006,-0.44142 3.42288,-0.38969 3.98125,0.0887 0.31514,0.26999 0.84957,0.39226 1.25315,0.28672 0.43721,-0.11433 1.04626,0.0599 1.60834,0.46017 0.49757,0.35429 1.05872,0.54896 1.24701,0.43259 0.40696,-0.25151 1.54973,0.70765 1.91951,1.61111 0.22941,0.56051 0.26447,0.5307 0.28223,-0.24 0.0224,-0.97341 0.66129,-1.16993 1.30028,-0.4 0.2191,0.264 0.77674,0.48458 1.23919,0.49018 1.00718,0.0122 2.10926,0.77074 1.81397,1.24853 -0.11601,0.18771 -0.0499,0.34129 0.14684,0.34129 0.19678,0 0.26891,0.14379 0.1603,0.31952 -0.10861,0.17574 0.0629,0.29468 0.38111,0.26431 1.13668,-0.10848 2.69986,0.44706 2.52682,0.898 -0.0939,0.24467 0.2562,0.74759 0.80055,1.15005 0.59961,0.44331 0.91383,0.92009 0.82649,1.25407 -0.0875,0.33476 0.0874,0.59856 0.46191,0.69649 0.34125,0.0892 0.60282,0.44015 0.60282,0.80872 0,0.35809 0.15289,0.74556 0.33974,0.86104 0.18686,0.11548 0.47725,0.57163 0.64531,1.01367 0.2387,0.62785 0.40013,0.72521 0.7378,0.44497 0.32597,-0.27053 0.53099,-0.23974 0.83388,0.12522 0.2209,0.26617 0.31412,0.48394 0.20716,0.48394 -0.10696,0 0.0909,0.468 0.43962,1.04 0.34876,0.572 0.63464,1.21708 0.6353,1.43351 6.6e-4,0.21643 0.56449,1.13775 1.25297,2.04739 0.68847,0.90963 1.17869,1.84432 1.08937,2.07708 -0.0893,0.23276 0.13134,0.79663 0.49035,1.25304 0.35901,0.4564 0.57766,1.0255 0.48588,1.26466 -0.0918,0.23916 0.13227,0.73397 0.49788,1.09958 0.36561,0.36561 0.66474,0.9774 0.66474,1.35954 0,0.38215 0.19411,0.92215 0.43135,1.2 0.63808,0.74734 1.27485,3.39854 1.04051,4.33221 -0.11854,0.47228 -0.0674,0.81299 0.12205,0.81299 0.60221,0 0.33533,1.64994 -0.35765,2.21107 l -0.68374,0.55367 0.87057,0.68478 c 0.49256,0.38745 0.77288,0.84284 0.64559,1.0488 -0.30205,0.48873 -0.458,2.64904 -0.48379,6.70168 -0.0212,3.32344 -0.67503,6.72 -1.29369,6.72 -0.16686,0 -0.21698,0.34429 -0.11136,0.76509 0.11114,0.44284 0.0319,0.86403 -0.18807,1 -0.28567,0.17655 -0.28823,0.29168 -0.0103,0.46345 0.41298,0.25523 -0.63479,3.29456 -1.44674,4.19666 -0.25009,0.27786 -0.45472,0.65555 -0.45472,0.83932 0,0.18377 -0.28871,0.9868 -0.64157,1.78452 -0.35287,0.79772 -0.55571,1.67416 -0.45077,1.94765 0.10945,0.2852 -0.22202,1.08279 -0.77725,1.87028 -0.53244,0.75517 -1.11912,1.95522 -1.30373,2.66678 -0.18462,0.71157 -0.62614,1.60554 -0.98117,1.98662 -0.35503,0.38108 -0.64551,0.96926 -0.64551,1.30707 0,0.33781 -0.19864,0.77906 -0.44143,0.98055 -0.24279,0.2015 -0.52953,0.80681 -0.63719,1.34514 -0.10767,0.53833 -0.48502,1.34652 -0.83857,1.79598 -0.35354,0.44946 -0.64281,1.00871 -0.64281,1.24279 0,0.23407 -0.288,0.57972 -0.64,0.7681 -0.82683,0.44251 -0.85517,1.6 -0.0392,1.6 0.33045,0 0.76775,0.20113 0.97177,0.44697 0.20402,0.24583 0.63753,0.37725 0.96336,0.29204 0.34734,-0.0908 1.15661,0.25378 1.95625,0.83304 0.7501,0.54337 1.69372,0.98795 2.09693,0.98795 0.40321,0 0.81177,0.12728 0.90791,0.28284 0.0961,0.15556 0.79731,0.57546 1.55815,0.93309 1.03016,0.48423 1.53372,0.98371 1.9723,1.95632 0.47612,1.05584 0.67446,1.23511 1.03523,0.9357 0.3572,-0.29645 0.82371,0.007 2.33716,1.52084 1.03998,1.04016 2.46679,2.32321 3.17068,2.85121 0.7039,0.528 1.28648,1.13493 1.29463,1.34874 0.008,0.21381 0.30281,0.54288 0.65481,0.73126 0.352,0.18838 0.64,0.55345 0.64,0.81126 0,0.25781 0.272,0.46874 0.60445,0.46874 0.37724,0 0.58774,0.20852 0.56,0.55475 -0.0314,0.39175 0.20113,0.56047 0.79138,0.57425 1.17916,0.0275 2.51644,0.99331 2.90039,2.0947 0.17951,0.51496 0.53187,0.9363 0.78301,0.9363 0.25114,0 0.58494,0.33751 0.74178,0.75003 0.15683,0.41251 0.72927,0.93398 1.27208,1.15882 0.5428,0.22484 0.98692,0.59628 0.98692,0.82542 0,0.22914 0.34029,0.82367 0.75621,1.32118 0.41592,0.4975 0.8534,1.21525 0.97218,1.59499 0.11878,0.37974 0.42406,0.77029 0.67839,0.86788 0.25434,0.0976 0.38895,0.36894 0.29914,0.60297 -0.0898,0.23403 0.27262,0.7478 0.80539,1.14169 0.53278,0.3939 0.96869,0.90555 0.96869,1.137 0,0.23146 0.29003,0.68331 0.64452,1.00411 0.37228,0.33691 0.57157,0.81313 0.47182,1.12743 -0.11207,0.3531 0.1148,0.73254 0.64619,1.08072 0.4504,0.29511 0.77821,0.71377 0.72848,0.93035 -0.10911,0.47513 1.14571,2.13741 1.61348,2.13741 0.18281,0 0.4295,0.324 0.5482,0.72 0.1187,0.396 0.62157,1.368 1.11748,2.16 1.43407,2.29028 3.18983,5.80281 3.18983,6.38149 0,0.29178 0.1632,0.69371 0.36266,0.89318 0.19947,0.19946 0.38664,0.62426 0.41594,0.944 0.0652,0.71134 1.10993,2.93976 1.73198,3.6943 0.45471,0.55155 0.54073,0.86765 0.89443,3.28703 0.12143,0.83053 0.47368,1.51436 1.00317,1.94742 0.71926,0.58829 0.81382,0.90154 0.79743,2.64182 -0.0102,1.08592 0.11032,2.05408 0.26789,2.15147 0.15757,0.0974 0.2865,0.52856 0.2865,0.95817 0,0.42962 0.15249,0.78112 0.33888,0.78112 0.18639,0 0.27041,0.1108 0.18671,0.24622 -0.0837,0.13542 0.12939,1.03542 0.47352,2 0.41563,1.16501 0.66183,2.82807 0.73334,4.95378 0.0592,1.76 0.21474,3.45644 0.34563,3.76987 0.13088,0.31343 0.15357,0.99185 0.0504,1.50759 -0.10315,0.51575 -0.0843,1.00156 0.042,1.07959 0.2122,0.13116 0.24435,6.11872 0.0684,12.74282 -0.0593,2.23225 -0.19498,2.90991 -0.68883,3.44 -0.33825,0.36307 -0.7534,0.66013 -0.92254,0.66013 -0.57135,0 -0.31252,0.56405 0.33674,0.73384 0.55939,0.14628 0.62859,0.38015 0.52524,1.77494 -0.0685,0.9242 -0.34211,1.82953 -0.64428,2.1317 -0.28888,0.28888 -0.53952,0.62295 -0.55698,0.74237 -0.0174,0.11943 -0.0688,0.64225 -0.11403,1.16183 -0.0453,0.51957 -0.24698,0.99957 -0.44826,1.06666 -0.20128,0.0671 -0.36596,0.24947 -0.36596,0.40528 0,0.15581 0.216,0.2004 0.48,0.0991 0.53856,-0.20667 0.6846,0.68006 0.16489,1.00125 -0.1733,0.10711 -0.28825,0.51913 -0.25544,0.9156 0.0328,0.39647 -0.3366,1.24038 -0.82092,1.87535 -0.54892,0.71968 -0.75358,1.23299 -0.54338,1.3629 0.18546,0.11462 0.25753,0.5258 0.16017,0.91373 -0.12815,0.51059 0.0924,0.96347 0.79882,1.64026 0.75942,0.72756 0.97586,0.81518 0.97586,0.39506 0,-0.77812 0.73186,-0.66397 1.58837,0.24775 0.58949,0.62748 0.86355,0.72148 1.34787,0.46228 0.33436,-0.17895 0.85449,-0.24867 1.15584,-0.15494 0.30136,0.0937 0.75066,0.0432 0.99845,-0.11238 0.71414,-0.44829 1.94947,0.27966 1.94947,1.14878 0,0.41175 0.1537,0.74864 0.34156,0.74864 0.19094,0 0.25576,-0.27036 0.14698,-0.61307 -0.26583,-0.83757 0.38604,-1.16343 1.07682,-0.53828 0.31077,0.28124 0.8046,0.51135 1.0974,0.51135 0.84021,0 2.13295,1.31461 2.18082,2.2177 0.0399,0.75312 0.0552,0.76172 0.18225,0.1023 0.16083,-0.83498 1.09431,-0.96279 1.70016,-0.23278 0.22816,0.27491 0.65721,0.40698 0.9846,0.30307 0.31913,-0.10129 0.94569,0.0553 1.39235,0.34796 0.44666,0.29266 1.0127,0.45515 1.25785,0.36107 0.24515,-0.0941 0.78479,0.0664 1.19919,0.3567 0.4144,0.29025 1.05531,0.48818 1.42425,0.43983 0.36895,-0.0483 0.85605,0.13531 1.08247,0.40812 0.22641,0.27282 0.8084,0.49603 1.2933,0.49603 0.4849,0 1.05974,0.2146 1.27743,0.4769 0.24981,0.301 0.67627,0.40652 1.1562,0.28606 0.52896,-0.13276 0.82043,-0.0344 0.95762,0.32309 0.10847,0.28267 0.50581,0.51795 0.88298,0.52285 0.37717,0.005 1.25552,0.43995 1.95188,0.96679 0.69636,0.52684 1.81236,1.04524 2.48,1.152 0.72112,0.11531 1.21389,0.37235 1.21389,0.63321 0,0.45788 0.0314,0.47355 1.19423,0.59597 0.92895,0.0978 1.68577,0.73933 1.68577,1.42898 0,0.79949 0.31198,0.98458 0.96851,0.57457 0.64633,-0.40364 1.59149,0.12919 1.59149,0.89719 0,0.23059 0.324,0.51241 0.72,0.62627 1.35205,0.38873 2.67322,1.08563 3.23507,1.70647 0.34328,0.37932 0.8085,0.55558 1.19774,0.45378 0.76637,-0.2004 1.54689,0.72438 1.3256,1.5706 -0.15458,0.5911 -0.0953,0.61788 1.59797,0.72135 1.135,0.0694 2.61532,1.17777 2.74588,2.05602 0.11747,0.79029 0.18706,0.81246 1.06897,0.34048 0.51389,-0.27503 0.79288,-0.22432 1.33896,0.24338 0.3794,0.32493 1.26581,0.8726 1.96981,1.21704 1.5764,0.77127 2.75291,1.62742 2.53535,1.84498 -0.0896,0.0896 0.0667,0.25109 0.34747,0.35882 0.29566,0.11345 0.42816,0.0628 0.31491,-0.12047 -0.3123,-0.50532 0.43235,-0.36644 1.37523,0.25649 0.47687,0.31505 1.15504,0.72576 1.50704,0.91268 0.352,0.18692 0.68456,0.63805 0.73902,1.0025 0.0589,0.39379 0.47249,0.79284 1.01948,0.98352 0.50624,0.17648 1.14938,0.76358 1.42919,1.30467 0.30582,0.59139 0.75924,0.98381 1.13675,0.98381 0.48447,0 0.67444,0.29046 0.83123,1.27095 0.19596,1.22549 0.97575,1.9117 1.6787,1.47725 0.45553,-0.28154 1.41946,1.01841 1.24627,1.68071 -0.11866,0.45377 -0.0208,0.57367 0.38228,0.46827 0.29798,-0.0779 0.72936,0.0843 0.95862,0.36057 0.22925,0.27623 0.58922,0.50225 0.79993,0.50225 0.21072,0 0.69613,0.36 1.07871,0.8 0.38257,0.44 0.84054,0.8 1.0177,0.8 0.17717,0 0.32212,0.21241 0.32212,0.47202 0,0.45513 3.188,4.03037 6,6.72881 0.748,0.71779 1.36221,1.58725 1.3649,1.93212 0.007,0.93465 0.50422,1.54574 1.07792,1.32559 0.31673,-0.12154 0.63374,0.0413 0.84356,0.43337 0.18488,0.34545 0.53737,0.62809 0.78332,0.62809 0.24594,0 0.53908,0.28957 0.65141,0.6435 0.11234,0.35394 0.62604,0.86163 1.14157,1.12822 0.51553,0.26659 0.93732,0.6281 0.93732,0.80335 0,0.17526 0.3419,0.47443 0.75978,0.66482 0.41788,0.1904 1.07598,0.97932 1.46245,1.75314 0.38647,0.77383 0.83657,1.40697 1.00022,1.40697 0.16365,0 0.29755,0.21148 0.29755,0.46995 0,0.25848 0.18,0.40399 0.4,0.32336 0.22,-0.0806 0.544,-0.0401 0.72,0.09 0.56351,0.41671 1.76,2.27541 1.76,2.73408 0,0.24385 0.27829,0.69521 0.61842,1.00302 0.34013,0.30782 0.55057,0.73649 0.46764,0.9526 -0.0829,0.21612 0.2108,0.55769 0.65275,0.75905 0.44194,0.20137 0.89033,0.71194 0.99641,1.1346 0.10609,0.42267 0.61406,1.07988 1.12883,1.46047 0.51477,0.38058 0.93595,0.87856 0.93595,1.10661 0,0.22806 0.36,0.75285 0.8,1.1662 0.44,0.41336 0.8,0.9343 0.8,1.15764 0,0.22334 0.30693,0.62106 0.68207,0.88381 0.4161,0.29145 0.60719,0.67287 0.49004,0.97815 -0.11738,0.30588 -0.0192,0.5004 0.25251,0.5004 0.24449,0 0.544,0.468 0.66557,1.04 0.25854,1.21644 0.88196,1.99946 2.05971,2.587 0.8312,0.41466 0.84797,0.40168 0.93357,-0.72238 0.16845,-2.21185 0.16305,-2.43054 -0.0774,-3.13396 -0.20093,-0.58787 -0.10235,-0.7445 0.57573,-0.91469 0.87031,-0.21843 1.12879,-0.77597 0.35975,-0.77597 -0.56965,0 -0.7687,-0.71789 -0.69317,-2.49997 0.0342,-0.80625 0.25246,-1.50268 0.52504,-1.6751 0.26017,-0.16457 0.30476,-0.29729 0.1008,-0.30003 -0.55436,-0.007 -0.70755,-0.71166 -0.34912,-1.6049 0.38914,-0.96972 0.44306,-1.96426 0.13366,-2.46489 -0.12607,-0.20398 -0.0829,-0.46133 0.096,-0.57188 0.17887,-0.11055 0.32522,-0.70998 0.32522,-1.33207 0,-0.84844 0.15439,-1.17145 0.61787,-1.29265 0.94338,-0.2467 1.02023,-0.92997 0.15659,-1.39218 -0.87174,-0.46653 -1.01724,-1.19325 -0.29446,-1.4706 0.61745,-0.23694 0.6141,-0.88607 -0.007,-1.40172 -0.50336,-0.41775 -0.35745,-1.56702 0.24838,-1.95639 0.25833,-0.16603 0.21264,-1.80868 -0.0923,-3.31761 -0.21098,-1.04405 0.0981,-2.48695 0.65112,-3.04 0.73004,-0.73004 0.80943,-1.30258 0.2572,-1.85481 -0.29707,-0.29706 -0.24881,-0.48077 0.21548,-0.82027 0.57379,-0.41957 0.56538,-0.45903 -0.20562,-0.9642 -0.70533,-0.46215 -0.8061,-0.76044 -0.82185,-2.43284 -0.0151,-1.59896 0.0797,-1.93711 0.58842,-2.09856 0.7492,-0.23779 0.78956,-0.70688 0.0728,-0.84586 -0.71566,-0.13876 -0.79298,-1.48576 -0.14913,-2.59794 0.47733,-0.82452 0.47712,-0.96539 -0.003,-1.80145 -0.68976,-1.20183 -0.43312,-2.58075 0.48276,-2.5938 0.60681,-0.009 0.62193,-0.0452 0.13598,-0.32847 -0.32634,-0.19026 -0.46765,-0.52476 -0.35056,-0.82988 0.11116,-0.28968 -0.007,-0.62487 -0.27287,-0.77362 -0.59678,-0.33398 -0.50371,-1.87916 0.20285,-3.36814 0.42642,-0.8986 0.45554,-1.22284 0.14361,-1.59869 -0.31559,-0.38027 -0.28009,-0.55279 0.18351,-0.89178 0.54072,-0.39538 0.53144,-0.43164 -0.15637,-0.61151 -0.66581,-0.17411 -0.71148,-0.31443 -0.51093,-1.56969 0.12113,-0.75817 0.34974,-1.50817 0.50802,-1.66666 0.17041,-0.17063 0.12705,-0.69271 -0.1063,-1.28 -0.2188,-0.55069 -0.34822,-1.91697 -0.29097,-3.07183 0.0567,-1.144 0.0966,-2.224 0.0886,-2.4 -0.1302,-2.86558 0.0476,-4.96 0.42116,-4.96 0.16839,0 0.059,-0.27307 -0.24298,-0.60682 -0.43027,-0.47544 -0.45833,-0.64863 -0.1296,-0.8 0.33139,-0.15258 0.33508,-0.23255 0.0176,-0.38051 -0.55757,-0.25984 -0.17203,-0.77267 0.58088,-0.77267 0.35063,0 0.62111,-0.21842 0.62111,-0.50157 0,-0.36105 -0.18495,-0.44286 -0.66018,-0.29203 -0.60082,0.1907 -0.62267,0.14948 -0.24302,-0.45843 0.22943,-0.36739 0.52651,-0.66797 0.66018,-0.66797 0.43349,0 0.25714,-1.28098 -0.29168,-2.11857 -0.45589,-0.69579 -0.46768,-0.85919 -0.08,-1.10874 0.38792,-0.24971 0.38913,-0.33493 0.008,-0.5803 -0.29742,-0.1916 -0.38333,-0.60334 -0.25733,-1.23334 0.10403,-0.52014 0.0349,-1.09996 -0.15362,-1.28848 -0.53842,-0.53842 -0.34028,-5.09449 0.2615,-6.01292 0.29187,-0.44546 0.36377,-0.77765 0.16831,-0.77765 -0.36781,0 -0.1306,-5.46422 0.25005,-5.76 0.11325,-0.088 0.19389,-2.068 0.17919,-4.4 -0.0147,-2.332 0.0764,-4.24 0.20236,-4.24 0.4721,0 0.46768,-1.15118 -0.008,-1.99877 -0.44568,-0.79467 -0.44254,-1.06651 0.0328,-2.84057 0.34385,-1.28333 0.42361,-2.14145 0.23062,-2.48124 -0.52647,-0.92692 -1.12157,-3.06529 -1.00865,-3.62439 0.0605,-0.29973 0.3888,-0.63343 0.72949,-0.74156 0.8724,-0.27689 0.79697,-1.12496 -0.0916,-1.0297 -0.51942,0.0557 -0.7148,-0.0962 -0.72505,-0.56377 -0.008,-0.352 0.11235,-0.81817 0.26682,-1.03593 0.15447,-0.21776 0.17111,-0.64976 0.037,-0.96 -0.52217,-1.20775 -0.47467,-1.74217 0.16981,-1.91071 0.67932,-0.17764 0.85743,-0.6076 0.32589,-0.7867 -0.17411,-0.0587 -0.38962,-0.87561 -0.4789,-1.81544 -0.0893,-0.93982 -0.23717,-1.82987 -0.32865,-1.97789 -0.0915,-0.14801 -0.013,-0.36388 0.17444,-0.47971 0.23847,-0.14738 0.23228,-0.3413 -0.0206,-0.646 -0.19874,-0.23946 -0.33447,-0.83864 -0.30163,-1.33151 0.0329,-0.49286 0.0326,-0.96811 -6.5e-4,-1.05611 -0.0332,-0.088 -0.11075,-1.13555 -0.17234,-2.32788 l -0.11198,-2.16789 1.01844,-0.41649 1.01843,-0.4165 -0.8213,-0.20699 c -1.44081,-0.36311 -2.19093,-2.84427 -1.52944,-5.05893 0.28558,-0.9561 0.24921,-1.3007 -0.21144,-2.00374 -0.36764,-0.5611 -0.4923,-1.16917 -0.36755,-1.79291 0.11204,-0.56024 0.0398,-1.03595 -0.17786,-1.17045 -0.23851,-0.1474 0.01,-0.5408 0.71045,-1.12577 1.09939,-0.91781 1.10039,-1.6757 10e-4,-0.98931 -0.51533,0.32183 -0.63955,0.2755 -0.82459,-0.30753 -0.16473,-0.519 -0.0132,-0.83554 0.62128,-1.29771 0.46153,-0.33621 0.83915,-0.74327 0.83915,-0.90459 0,-0.50269 -1.02659,-0.32119 -1.50845,0.26669 -0.25246,0.308 -0.36393,0.37369 -0.24773,0.14598 0.1162,-0.22771 0.0531,-0.6046 -0.14022,-0.83754 -0.25934,-0.31249 -0.23815,-0.51759 0.0808,-0.78231 0.50481,-0.41895 0.64141,-4.16231 0.17273,-4.73357 -0.16581,-0.2021 -0.23506,-0.73365 -0.15389,-1.18123 0.0876,-0.48287 -0.0435,-0.97239 -0.32241,-1.20383 -0.25848,-0.21452 -0.3995,-0.57366 -0.31338,-0.79809 0.0861,-0.22444 0.003,-0.45916 -0.18406,-0.52161 -0.1908,-0.0636 -0.38539,-1.23401 -0.44235,-2.66068 -0.0559,-1.40091 -0.17824,-3.47357 -0.27178,-4.6059 -0.10483,-1.26899 -0.036,-2.22037 0.17951,-2.48 0.25205,-0.3037 0.25241,-0.53831 10e-4,-0.84087 -0.19156,-0.23081 -0.41346,-1.95358 -0.49312,-3.82838 -0.0797,-1.87481 -0.24096,-3.56427 -0.35845,-3.75437 -0.11749,-0.1901 -0.0402,-0.55461 0.17179,-0.81002 0.30344,-0.36563 0.28518,-0.61782 -0.0859,-1.18598 -0.28356,-0.43416 -0.37977,-0.97653 -0.24153,-1.3616 0.12637,-0.352 0.10209,-0.72256 -0.054,-0.82346 -0.45101,-0.29163 -0.64621,-2.62336 -0.2406,-2.87404 0.25163,-0.15552 0.18927,-0.48132 -0.20828,-1.08806 -0.40143,-0.61265 -0.54648,-1.38503 -0.49572,-2.63966 0.0588,-1.45296 -0.0511,-1.88808 -0.60798,-2.40687 -0.37385,-0.3483 -0.5994,-0.84261 -0.50121,-1.09848 0.0982,-0.25586 -0.0361,-0.97874 -0.29831,-1.6064 -0.26225,-0.62765 -0.47682,-1.5556 -0.47682,-2.06211 0,-0.50651 -0.13747,-0.92092 -0.3055,-0.92092 -0.16802,0 -0.40035,-0.50559 -0.51627,-1.12353 -0.11593,-0.61795 -0.33846,-1.20245 -0.4945,-1.29889 -0.15605,-0.0964 -0.28373,-0.59035 -0.28373,-1.09758 0,-0.50723 -0.11618,-0.99403 -0.25819,-1.0818 -0.142,-0.0878 -0.23592,-0.81901 -0.2087,-1.62499 0.042,-1.24378 -0.0326,-1.43938 -0.49294,-1.29326 -0.42659,0.13539 -0.54843,-0.0389 -0.57053,-0.81608 -0.0154,-0.54353 -0.1484,-1.15825 -0.29544,-1.36605 -0.14704,-0.2078 -0.26439,-0.80982 -0.26077,-1.33782 0.004,-0.528 -0.13443,-1.06089 -0.30677,-1.18421 -0.17233,-0.12331 -0.26927,-0.73559 -0.21542,-1.36061 0.0655,-0.76032 -0.0534,-1.19446 -0.35923,-1.31183 -0.28728,-0.11024 -0.40183,-0.46471 -0.30828,-0.95404 0.0819,-0.42825 0.0413,-1.03304 -0.0902,-1.34397 -0.13149,-0.31094 -0.29937,-1.06934 -0.37306,-1.68534 -0.0737,-0.616 -0.25622,-1.24257 -0.4056,-1.39238 -0.14937,-0.1498 -0.15187,-0.6898 -0.006,-1.2 0.2305,-0.80371 0.18026,-0.92762 -0.37614,-0.92762 -0.54067,0 -0.62672,-0.17954 -0.54433,-1.13579 0.0597,-0.69267 -0.0682,-1.23841 -0.32773,-1.39881 -0.2926,-0.18084 -0.39212,-0.80084 -0.31849,-1.98421 0.0589,-0.94665 0.0168,-1.86519 -0.0935,-2.04119 -0.11033,-0.176 -0.34844,-0.86016 -0.52915,-1.52035 -0.3082,-1.126 -0.28059,-1.21239 0.44575,-1.39469 0.9947,-0.24966 0.9851,-0.87269 -0.0257,-1.66779 -0.92984,-0.73141 -1.00798,-1.01717 -0.27813,-1.01717 0.41103,0 0.4857,-0.2229 0.35156,-1.04948 -0.0937,-0.57721 0.01,-1.7585 0.22976,-2.62508 0.24633,-0.97015 0.30313,-2.00534 0.14782,-2.69397 -0.2052,-0.90983 -0.14123,-1.19612 0.34304,-1.53532 0.3274,-0.22932 0.68976,-0.84711 0.80523,-1.37288 0.26353,-1.19982 0.69218,-1.48935 0.95925,-0.64791 0.11253,0.35455 0.3389,0.64464 0.50304,0.64464 0.46663,0 0.35003,-0.95412 -0.18157,-1.48571 -0.7248,-0.72481 -0.59151,-1.22452 0.67432,-2.52797 1.04339,-1.07441 1.13502,-1.30929 0.95355,-2.44417 -0.14005,-0.87581 -0.0537,-1.46559 0.28568,-1.95005 0.26755,-0.38197 0.48645,-0.51846 0.48645,-0.3033 0,0.57003 0.85776,0.4792 1.08577,-0.11497 0.27732,-0.7227 0.25085,-0.77547 -0.28577,-0.56955 -0.264,0.10131 -0.47542,0.0608 -0.46982,-0.09 0.0165,-0.44527 0.83222,-1.39424 1.19843,-1.39424 0.18593,0 0.40553,-0.18 0.488,-0.4 0.10364,-0.27646 0.30289,-0.20233 0.64513,0.24 0.38275,0.49469 0.58258,0.55385 0.88015,0.26057 0.60807,-0.59931 -0.42536,-1.45213 -1.44849,-1.19534 -0.44737,0.11229 -0.8134,0.0669 -0.8134,-0.10094 0,-0.36364 1.05619,-1.36429 1.44,-1.36429 0.14828,0 0.53635,-0.2414 0.86237,-0.53644 0.45442,-0.41124 0.68061,-0.44858 0.96919,-0.16 0.55477,0.55477 1.12336,0.46153 1.89579,-0.31091 0.61497,-0.61496 1.7027,-0.82777 2.73987,-0.53605 0.20219,0.0569 0.58534,-0.1846 0.85145,-0.5366 0.4075,-0.53901 0.57517,-0.57656 1.06259,-0.23796 1.0337,0.71808 1.45446,0.82453 1.98113,0.50121 0.29498,-0.18109 0.91107,-0.21071 1.43238,-0.0689 0.75509,0.20544 0.94313,0.14038 1.07732,-0.37275 0.21336,-0.81587 1.36791,-0.82926 1.36791,-0.0159 0,0.83405 0.93122,1.11948 1.61966,0.49644 0.44002,-0.39821 0.71213,-0.4356 1.2143,-0.16685 0.42777,0.22893 0.71444,0.23758 0.84551,0.0255 0.30665,-0.49618 0.66898,-0.39024 1.73598,0.50758 0.9692,0.81552 0.98455,0.81761 0.98455,0.1339 v -0.69455 l 1.07777,0.6661 c 1.27322,0.78689 1.6159,0.83599 1.37044,0.19635 -0.24657,-0.64256 0.35462,-0.95266 0.9266,-0.47796 0.28172,0.23381 0.86774,0.3072 1.47811,0.18513 0.71221,-0.14244 1.18343,-0.0465 1.5932,0.32432 0.47978,0.43419 0.6688,0.45445 1.07726,0.11546 0.41278,-0.34258 0.61732,-0.29658 1.22663,0.27583 0.91557,0.86014 1.48999,0.87825 1.48999,0.047 0,-0.83868 0.57624,-0.81146 1.51623,0.0716 0.6056,0.56893 0.81137,0.62441 1.02626,0.27671 0.21095,-0.34132 0.48274,-0.36031 1.26315,-0.0883 0.62631,0.21834 0.99436,0.23064 0.99436,0.0332 0,-0.69335 0.99,-0.64871 1.60054,0.0722 0.61781,0.72945 0.65445,0.73463 1.10282,0.15583 0.36626,-0.4728 0.70277,-0.55386 1.60022,-0.3855 0.73226,0.13737 1.13642,0.0902 1.13642,-0.13257 0,-0.23873 0.18545,-0.24651 0.59913,-0.0251 0.38847,0.2079 0.97173,0.21378 1.65881,0.0167 0.58282,-0.16715 1.12496,-0.23863 1.20475,-0.15884 0.0798,0.0798 0.56136,-0.15135 1.07016,-0.51365 0.77251,-0.55007 1.08435,-0.60321 1.89062,-0.32214 0.76668,0.26727 1.00145,0.24296 1.13997,-0.11803 0.11735,-0.30581 0.46207,-0.3971 1.05313,-0.27888 0.54143,0.10828 1.05335,0.001 1.33379,-0.27939 0.42835,-0.42835 2.00338,-0.85917 3.80964,-1.04204 1.24625,-0.12618 2.66161,-0.48857 3.3231,-0.85084 0.48313,-0.2646 0.76814,-0.16526 1.43273,0.49932 0.67909,0.67909 0.72934,0.82963 0.2769,0.82963 -0.34317,0 -0.55273,0.24772 -0.55273,0.65338 0,0.35936 -0.28879,0.96337 -0.64176,1.34224 -0.46349,0.4975 -0.54391,0.78268 -0.28949,1.02662 0.25014,0.23983 0.49324,0.13002 0.83847,-0.37873 l 0.48619,-0.7165 0.6033,0.76697 c 1.06364,1.3522 0.48866,2.70265 -1.00357,2.35707 -0.50728,-0.11748 -0.70035,0.42633 -0.34863,0.98199 0.20567,0.32493 0.43181,0.34864 0.90578,0.095 0.45759,-0.2449 0.73704,-0.23269 1.01402,0.0443 0.29646,0.29647 0.43697,0.29397 0.62554,-0.0111 0.40281,-0.65176 2.20772,0.20708 2.48378,1.18188 0.12725,0.44933 0.20403,0.93607 0.17064,1.08165 -0.0334,0.14558 0.37629,0.42965 0.91042,0.63126 1.11481,0.42079 1.10774,0.92381 -0.0167,1.18926 -1.02831,0.24275 -1.21262,1.15077 -0.22891,1.12769 0.40203,-0.009 0.91197,-0.13333 1.13322,-0.27531 0.42733,-0.27424 0.56943,-0.0175 0.80639,1.45712 0.12496,0.77759 0.059,0.85423 -0.59398,0.69034 -0.63699,-0.15987 -0.76235,-0.0361 -0.9439,0.9316 -0.13146,0.70074 -0.0519,1.39639 0.21389,1.86966 0.45441,0.80919 0.46231,0.84717 0.71046,3.41656 0.0905,0.93658 0.33393,1.90706 0.54106,2.15663 0.52011,0.6267 0.43936,8.7116 -0.0934,9.35357 -0.23692,0.28547 -0.41665,1.78554 -0.46328,3.86668 -0.0869,3.87596 -0.12028,4.20025 -0.43281,4.20025 -0.12467,0 -0.30959,0.41464 -0.41095,0.92143 -0.10136,0.50679 -0.4078,1.14494 -0.68098,1.41812 -0.44893,0.44893 -0.4353,0.51619 0.14176,0.69934 0.61494,0.19517 0.61854,0.24019 0.0975,1.22188 -0.29752,0.56057 -0.5018,1.28034 -0.45393,1.59947 0.0479,0.31913 -0.14921,0.94077 -0.43793,1.38141 -0.40233,0.61403 -0.43903,0.90472 -0.15711,1.24441 0.20232,0.24378 0.28624,0.70214 0.1865,1.01858 -0.0997,0.31645 -0.25006,1.36736 -0.33404,2.33536 -0.084,0.968 -0.23464,2.68652 -0.33481,3.81893 -0.10017,1.13241 -0.33828,2.24709 -0.52915,2.47707 -0.19086,0.22998 -0.27701,0.88746 -0.19144,1.46107 0.17499,1.17291 -0.24944,2.61504 -0.68955,2.34304 -0.15877,-0.0981 -0.25383,0.28921 -0.21125,0.86074 0.12391,1.66317 -0.40066,2.79915 -1.29259,2.79915 -0.46995,0 -0.7687,0.18655 -0.7687,0.48 0,0.264 0.144,0.48 0.32,0.48 0.53328,0 0.35785,1.28556 -0.20489,1.50151 -0.48222,0.18504 -0.48291,0.23212 -0.008,0.57909 0.3595,0.26287 0.4858,0.75791 0.41549,1.62854 -0.13469,1.66803 -0.52578,3.01086 -0.87689,3.01086 -0.15692,0 -0.28531,0.19658 -0.28531,0.43685 0,0.24026 -0.29053,0.8062 -0.64563,1.25763 -0.43005,0.54672 -0.52897,0.89289 -0.29625,1.03672 0.59327,0.36666 -0.54842,5.93624 -1.38919,6.77702 -0.33122,0.33122 -0.42743,0.86355 -0.31183,1.72539 0.14901,1.111 0.0931,1.24639 -0.51496,1.24639 -0.37518,0 -0.68214,0.144 -0.68214,0.32 0,0.176 0.252,0.3222 0.56,0.3249 0.34425,0.003 0.42488,0.0955 0.20928,0.24 -0.48497,0.32508 -0.86614,1.9951 -0.45537,1.9951 0.44462,0 0.41284,1.06525 -0.0454,1.52355 -0.20436,0.20435 -0.41168,0.74795 -0.46073,1.20799 -0.10497,0.98449 -0.66726,1.74846 -1.28691,1.74846 -0.24245,0 -0.44082,0.15031 -0.44082,0.33403 0,0.18371 0.24678,0.29171 0.5484,0.24 0.87739,-0.15044 0.85561,0.9416 -0.0353,1.76722 -0.5837,0.54096 -0.71411,0.84978 -0.46432,1.09957 0.42033,0.42033 0.42898,2.85683 0.012,3.38261 -0.16425,0.20711 -0.24792,0.66457 -0.18593,1.01657 0.16491,0.93652 -0.51061,2.3984 -1.11372,2.41018 -0.45209,0.009 -0.4436,0.069 0.0641,0.45377 0.47546,0.36035 0.51838,0.56862 0.22874,1.10982 -0.1961,0.36643 -0.24349,0.67536 -0.10529,0.68651 0.13819,0.0112 -0.0972,0.15955 -0.52299,0.32976 -0.59098,0.23622 -0.68566,0.39805 -0.4,0.68371 0.59994,0.59994 0.4542,2.9566 -0.23551,3.80836 -0.41104,0.50762 -0.52055,0.91967 -0.33604,1.26443 0.44495,0.8314 0.22989,1.89346 -0.38342,1.89346 -0.66501,0 -1.05078,0.51571 -0.59601,0.79677 0.17888,0.11055 0.32522,0.0485 0.32522,-0.13789 0,-0.18638 0.216,-0.33888 0.48,-0.33888 0.75841,0 0.56061,0.91586 -0.38759,1.79462 -0.70572,0.65403 -0.7821,0.85689 -0.4094,1.08724 0.3861,0.23862 0.39341,0.46238 0.0464,1.42191 -0.22647,0.62631 -0.32095,1.42488 -0.20995,1.77462 0.111,0.34973 0.0879,0.81717 -0.0514,1.03875 -0.13926,0.22157 -0.28722,1.26686 -0.32879,2.32286 -0.0416,1.056 -0.10946,2.748 -0.15087,3.76 -0.048,1.17307 -0.2141,1.84 -0.45825,1.84 -0.47414,0 -0.78273,2.57343 -0.37245,3.10598 0.16355,0.21229 0.19936,0.54456 0.0796,0.73838 -0.11978,0.19381 -0.25899,1.98606 -0.30935,3.98276 -0.0503,1.9967 -0.16268,3.75243 -0.24961,3.90162 -0.0869,0.14919 -0.16522,1.23951 -0.17399,2.42294 -0.009,1.18342 -0.10489,2.43191 -0.2136,2.77443 -0.48171,1.51772 -0.56333,2.38961 -0.64723,6.91389 -0.049,2.64 -0.30634,6.312 -0.57196,8.16 -0.26561,1.848 -0.49373,4.08 -0.50693,4.96 -0.0132,0.88 -0.0299,2.16824 -0.037,2.86276 -0.007,0.69452 -0.16777,1.35843 -0.35695,1.47535 -0.30184,0.18655 -0.53224,7.49559 -0.26674,8.46189 0.0484,0.176 -0.0303,1.328 -0.17478,2.56 -0.14448,1.232 -0.30982,4.328 -0.3674,6.88 -0.1452,6.43476 -0.45025,13.15077 -0.90843,20 -0.0824,1.232 -0.1798,3.752 -0.21641,5.6 -0.0366,1.848 -0.22191,3.56764 -0.41176,3.82142 -0.26851,0.35894 -0.24678,0.40215 0.0978,0.19455 0.35835,-0.21589 0.3988,-0.0595 0.21168,0.81857 -0.12722,0.597 -0.27622,2.23746 -0.3311,3.64546 -0.0549,1.408 -0.19523,4.19027 -0.3119,6.18283 -0.13344,2.27903 -0.0928,3.76667 0.10969,4.0106 0.20504,0.24706 0.21835,0.84832 0.0367,1.65716 -0.15682,0.69817 -0.29308,2.63741 -0.3028,4.30941 -0.0261,4.48355 -0.16731,6.83135 -0.43723,7.26707 -0.13188,0.21288 -0.24111,0.86088 -0.24274,1.44 -0.0116,4.12464 -0.69827,14.79821 -1.00448,15.61292 -0.16538,0.44 -0.34666,2.6 -0.40286,4.8 -0.23339,9.13761 -0.37793,12.36316 -0.56776,12.67031 -0.11034,0.17853 -0.28607,1.61275 -0.39051,3.18715 -0.10444,1.5744 -0.26503,3.36654 -0.35686,3.98254 -0.0918,0.616 -0.15099,1.948 -0.13146,2.96 0.0195,1.012 -0.10165,1.84 -0.2693,1.84 -0.38356,0 -0.64787,2.54952 -0.28741,2.7723 0.35338,0.2184 -0.0806,3.08794 -0.50867,3.36345 -0.19438,0.12509 -0.35729,1.68519 -0.38774,3.71314 -0.0289,1.92357 -0.14139,3.64119 -0.25,3.81693 -0.32965,0.53339 -0.59136,4.15284 -0.66729,9.22855 -0.0396,2.6479 -0.1717,4.97566 -0.29354,5.1728 -0.12184,0.19713 -0.28437,1.02884 -0.36118,1.84823 -0.0768,0.81939 -0.43587,1.99187 -0.79792,2.6055 -0.78643,1.33289 -0.79487,1.3991 -0.17828,1.3991 0.264,0 0.48,0.13222 0.48,0.29383 0,0.63755 -0.40951,1.30617 -0.8,1.30617 -0.22634,0 -0.501,0.23319 -0.61037,0.51819 -0.15861,0.41333 -0.036,0.48706 0.60576,0.36437 0.49983,-0.0955 0.80461,-0.008 0.80461,0.23222 0,0.535 -1.06206,1.44522 -1.68631,1.44522 -0.80852,0 -1.01385,0.66326 -0.26588,0.85886 0.9387,0.24548 0.8386,0.95234 -0.1831,1.29291 -0.81562,0.27187 -0.85334,0.38073 -0.8132,2.34666 0.0232,1.13387 -0.11629,2.56557 -0.30989,3.18157 -0.19359,0.616 -0.41259,1.33506 -0.48666,1.59791 -0.10392,0.36882 -0.26578,0.3041 -0.70902,-0.28353 -0.58577,-0.77656 -1.1501,-0.51453 -0.80858,0.37545 0.0989,0.25785 -0.0425,0.55275 -0.31539,0.65746 -0.39982,0.15343 -0.43044,0.35918 -0.15951,1.07178 0.2636,0.69332 0.2345,0.95561 -0.13607,1.22658 -0.25925,0.18957 -0.51974,0.76985 -0.57888,1.28951 -0.0721,0.63411 -0.26884,0.91916 -0.59807,0.86676 -0.29025,-0.0462 -0.63825,0.31315 -0.85221,0.88 -0.24935,0.66062 -0.57827,0.95808 -1.05939,0.95808 -0.42863,0 -0.76231,0.24685 -0.86512,0.64 -0.092,0.352 -0.37627,0.64 -0.6316,0.64 -0.31182,0 -0.40036,-0.20128 -0.26966,-0.61307 0.23226,-0.7318 -0.0495,-0.94461 -1.38547,-1.04641 -0.85767,-0.0654 -1.03099,-0.22836 -1.19984,-1.12845 -0.13734,-0.73209 -0.37464,-1.05207 -0.7802,-1.05207 -0.32055,0 -0.66929,-0.27245 -0.77498,-0.60545 -0.23852,-0.75151 -1.3468,-1.08758 -1.58026,-0.47919 -0.0938,0.24456 -0.0877,0.66064 0.0136,0.92464 0.11171,0.29111 10e-4,0.48 -0.28134,0.48 -0.30129,0 -0.4755,0.3503 -0.49377,0.99287 -0.0305,1.07299 -0.38838,1.65466 -0.61964,1.00713 -0.24899,-0.69715 -0.68325,-0.43271 -0.78827,0.48 -0.0815,0.70793 -0.26196,0.87842 -0.92314,0.8719 -0.65209,-0.006 -0.79788,0.12579 -0.70571,0.64 0.0817,0.45577 -0.21724,0.87181 -1.00729,1.40193 -0.61791,0.41461 -1.21179,1.06261 -1.31974,1.44 -0.54448,1.90354 -1.15059,2.79495 -1.76732,2.59921 -0.69047,-0.21915 -0.81592,0.1611 -0.24237,0.73465 0.46083,0.46083 -0.95351,1.89238 -2.35091,2.37951 -0.49763,0.17348 -0.90478,0.51732 -0.90478,0.76411 0,0.28416 -0.34834,0.44869 -0.94996,0.44869 -0.75124,0 -0.90758,-0.11042 -0.74738,-0.52789 z m 16.01734,-16.01269 c -0.308,-0.0805 -0.56,-0.30379 -0.56,-0.49622 0,-0.19242 -0.0864,-0.26345 -0.19204,-0.15782 -0.3196,0.31959 0.1936,0.87711 0.77093,0.8375 0.48784,-0.0335 0.48598,-0.0515 -0.0189,-0.18346 z m -205.73654,-99.8329 c -0.0569,-0.29341 -0.27214,-0.58964 -0.47829,-0.65827 -0.23843,-0.0794 -0.31218,0.11474 -0.20268,0.53348 0.20454,0.78215 0.83071,0.89689 0.68097,0.12479 z m 2.52987,-0.29985 c -0.10634,-0.10633 -0.38234,-0.1177 -0.61334,-0.0253 -0.25527,0.10215 -0.17945,0.17798 0.19334,0.19333 0.33733,0.0139 0.52633,-0.0617 0.42,-0.16807 z m 68.54974,-9.35897 c -0.52353,-0.17451 -1.05613,0.47048 -0.77035,0.9329 0.18191,0.29433 0.3588,0.24068 0.6872,-0.20843 0.30754,-0.42058 0.33286,-0.64124 0.0831,-0.72447 z m -43.98308,-1.96769 c 0.10878,-0.176 0.0453,-0.32 -0.14111,-0.32 -0.18639,0 -0.33889,0.144 -0.33889,0.32 0,0.176 0.0635,0.32 0.14112,0.32 0.0776,0 0.23011,-0.144 0.33888,-0.32 z m 17.18424,-4.40526 c -0.21133,-0.0704 -0.38424,-0.40408 -0.38424,-0.74141 0,-0.75069 -0.58471,-0.80974 -0.86203,-0.0871 -0.23032,0.60021 0.76161,1.49356 1.29342,1.16489 0.22561,-0.13944 0.21002,-0.25069 -0.0471,-0.33642 z m -69.27091,-19.14808 c -0.10633,-0.10633 -0.38233,-0.1177 -0.61333,-0.0253 -0.25527,0.10215 -0.17945,0.17798 0.19333,0.19333 0.33734,0.0139 0.52634,-0.0617 0.42,-0.16807 z m 159.60668,-2.36666 c 0.10877,-0.176 0.0453,-0.32 -0.14112,-0.32 -0.18638,0 -0.33888,0.144 -0.33888,0.32 0,0.176 0.0635,0.32 0.14111,0.32 0.0776,0 0.23011,-0.144 0.33889,-0.32 z m -160.16001,-7.744 c 0,-0.51694 -0.0946,-0.60938 -0.35612,-0.34789 -0.19586,0.19587 -0.25936,0.51267 -0.14111,0.704 0.331,0.53558 0.49723,0.41653 0.49723,-0.35611 z m 137.92001,-5.696 c 0,-0.176 -0.0635,-0.32 -0.14112,-0.32 -0.0776,0 -0.23011,0.144 -0.33888,0.32 -0.10878,0.176 -0.0453,0.32 0.14111,0.32 0.18639,0 0.33889,-0.144 0.33889,-0.32 z m -24.32,-6.08 c 0,-0.176 -0.144,-0.32 -0.32,-0.32 -0.176,0 -0.32,0.144 -0.32,0.32 0,0.176 0.144,0.32 0.32,0.32 0.176,0 0.32,-0.144 0.32,-0.32 z m -85.76001,-6.22112 c 0,-0.33775 -0.61411,-0.47965 -0.79677,-0.1841 -0.11055,0.17887 0.0235,0.32522 0.29789,0.32522 0.27438,0 0.49888,-0.0635 0.49888,-0.14112 z m -12.9403,-1.68295 c -0.14864,-0.38733 -0.29403,-0.4296 -0.56063,-0.163 -0.26659,0.26659 -0.24616,0.49705 0.0788,0.88859 0.49632,0.59804 0.80904,0.12712 0.48183,-0.72559 z m 202.97932,-23.16269 c -0.26484,-0.16453 -0.48622,-0.13516 -0.55801,0.074 -0.0654,0.19072 0.0786,0.46949 0.32,0.61949 0.26483,0.16453 0.48622,0.13517 0.55801,-0.074 0.0655,-0.19071 -0.0785,-0.46948 -0.32,-0.61949 z M 663.82845,113.40348 c -0.10215,-0.25527 -0.17798,-0.17945 -0.19333,0.19333 -0.0139,0.33734 0.0617,0.52634 0.16807,0.42 0.10633,-0.10633 0.1177,-0.38233 0.0253,-0.61333 z m 138.82141,-38.66 c 0.10878,-0.176 0.0453,-0.32 -0.14111,-0.32 -0.18639,0 -0.33889,0.144 -0.33889,0.32 0,0.176 0.0635,0.32 0.14112,0.32 0.0776,0 0.23011,-0.144 0.33888,-0.32 z m -0.48,-5.26111 c 0,-0.0776 -0.144,-0.23011 -0.32,-0.33889 -0.176,-0.10877 -0.32,-0.0453 -0.32,0.14112 0,0.18638 0.144,0.33888 0.32,0.33888 0.176,0 0.32,-0.0635 0.32,-0.14111 z m 0.64,-12.20555 c 0,-0.27867 -0.171,-0.44967 -0.38,-0.38 -0.59335,0.19778 -0.69176,0.88666 -0.12667,0.88666 0.27867,0 0.50667,-0.228 0.50667,-0.50666 z m 3.4186,-8.83334 c -0.10215,-0.25527 -0.17798,-0.17945 -0.19334,0.19334 -0.0139,0.33733 0.0617,0.52633 0.16807,0.42 0.10634,-0.10634 0.11771,-0.38234 0.0253,-0.61334 z m 30.07333,-2.9 c -0.0888,-0.22 -0.1614,-0.04 -0.1614,0.4 0,0.44 0.0726,0.62 0.1614,0.4 0.0888,-0.22 0.0888,-0.58 0,-0.8 z m 7.98141,-0.47333 c -0.32529,-0.32529 -0.59368,0.16444 -0.32679,0.59628 0.20161,0.32621 0.27698,0.32647 0.38537,0.001 0.0741,-0.22233 0.0477,-0.49124 -0.0586,-0.59757 z M 612.83339,41.59172 c -0.12313,-0.32085 -0.29731,-0.38247 -0.50215,-0.17763 -0.36646,0.36646 -0.0117,1.10296 0.40675,0.84436 0.15615,-0.0965 0.19908,-0.39653 0.0954,-0.66673 z m -2.66354,-2.54712 c 0,-0.52803 -0.50574,-0.61724 -0.8,-0.14112 -0.26096,0.42225 0.12167,1.02146 0.50211,0.78634 0.16384,-0.10126 0.29789,-0.39161 0.29789,-0.64522 z m 20.59572,0.0189 c -0.19475,-0.50751 -0.75572,-0.66587 -0.75572,-0.21333 0,0.3384 0.34979,0.69333 0.68329,0.69333 0.14115,0 0.17374,-0.216 0.0724,-0.48 z m 15.04,-1.28 c 0.10131,-0.264 0.0447,-0.48 -0.12576,-0.48 -0.17048,0 -0.30996,0.216 -0.30996,0.48 0,0.264 0.0566,0.48 0.12577,0.48 0.0692,0 0.20865,-0.216 0.30995,-0.48 z m 168.52429,180 c 0,-0.528 0.144,-0.96 0.32,-0.96 0.176,0 0.32,0.432 0.32,0.96 0,0.528 -0.144,0.96 -0.32,0.96 -0.176,0 -0.32,-0.432 -0.32,-0.96 z M 614.58985,169.8849 c 0.231,-0.0924 0.507,-0.0811 0.61333,0.0253 0.10634,0.10634 -0.0827,0.18197 -0.42,0.16808 -0.37278,-0.0154 -0.4486,-0.0912 -0.19333,-0.19334 z M 869.68986,43.5435 c -0.22961,-0.27667 -0.26071,-0.48 -0.0734,-0.48 0.17872,0 0.40783,0.216 0.50914,0.48 0.1013,0.264 0.13434,0.48 0.0734,0.48 -0.0609,0 -0.29003,-0.216 -0.50914,-0.48 z m -294.08001,-5.12 c 0,-0.29333 0.1548,-0.48173 0.344,-0.41866 0.1892,0.0631 0.344,0.25146 0.344,0.41866 0,0.1672 -0.1548,0.3556 -0.344,0.41867 -0.1892,0.0631 -0.344,-0.12533 -0.344,-0.41867 z"
       id="path1" />
  </g>
</svg>
